<svg height="1316" width="1686" xmlns="http://www.w3.org/2000/svg">
 <!-- Created with Image Occlusion Enhanced -->
 <g>
  <title>Labels</title>
 </g>
 <g>
  <title>Masks</title>
  <rect fill="#00ff00" height="77.77777" id="b650f300ca9f4c8fb9dcb2dfd4acd377-oa-1" stroke="#2D2D2D" width="633.33331" x="366.22223" y="100.1111"/>
  <rect fill="#00ff00" height="77.77777" id="b650f300ca9f4c8fb9dcb2dfd4acd377-oa-2" stroke="#2D2D2D" width="633.33331" x="366.22223" y="296.22224"/>
  <rect fill="#00ff00" height="77.77777" id="b650f300ca9f4c8fb9dcb2dfd4acd377-oa-3" stroke="#2D2D2D" width="633.33331" x="366.22224" y="200.6667"/>
  <rect fill="#00ff00" height="77.77777" id="b650f300ca9f4c8fb9dcb2dfd4acd377-oa-4" stroke="#2D2D2D" width="633.33331" x="366.22223" y="394"/>
  <rect fill="#00ff00" height="77.77777" id="b650f300ca9f4c8fb9dcb2dfd4acd377-oa-5" stroke="#2D2D2D" width="633.33331" x="366.22224" y="487.33333"/>
  <rect fill="#00ff00" height="77.77777" id="b650f300ca9f4c8fb9dcb2dfd4acd377-oa-6" stroke="#2D2D2D" width="633.33331" x="366.22223" y="585.11112"/>
  <rect fill="#00ff00" height="77.77777" id="b650f300ca9f4c8fb9dcb2dfd4acd377-oa-7" stroke="#2D2D2D" width="633.33331" x="366.22223" y="682.88889"/>
  <rect fill="#00ff00" height="77.77777" id="b650f300ca9f4c8fb9dcb2dfd4acd377-oa-8" stroke="#2D2D2D" width="633.33331" x="366.22224" y="778.44439"/>
  <rect fill="#00ff00" height="53.33333" id="b650f300ca9f4c8fb9dcb2dfd4acd377-oa-9" stroke="#2D2D2D" width="633.33331" x="366.22222" y="868.44437"/>
  <rect fill="#00ff00" height="53.33333" id="b650f300ca9f4c8fb9dcb2dfd4acd377-oa-10" stroke="#2D2D2D" width="633.33331" x="366.22223" y="1015.11107"/>
  <rect fill="#00ff00" height="53.33333" id="b650f300ca9f4c8fb9dcb2dfd4acd377-oa-11" stroke="#2D2D2D" width="633.33331" x="366.22224" y="1075.11105"/>
  <rect fill="#00ff00" height="53.33333" id="b650f300ca9f4c8fb9dcb2dfd4acd377-oa-12" stroke="#2D2D2D" width="633.33331" x="1021.77779" y="1015.11107"/>
  <rect fill="#00ff00" height="53.33333" id="b650f300ca9f4c8fb9dcb2dfd4acd377-oa-13" stroke="#2D2D2D" width="633.33331" x="1021.77779" y="868.44441"/>
  <rect fill="#00ff00" height="77.77777" id="b650f300ca9f4c8fb9dcb2dfd4acd377-oa-14" stroke="#2D2D2D" width="633.33331" x="366.22224" y="931.77777"/>
  <rect fill="#00ff00" height="77.77777" id="b650f300ca9f4c8fb9dcb2dfd4acd377-oa-15" stroke="#2D2D2D" width="633.33331" x="366.22222" y="1136.22214"/>
  <rect fill="#00ff00" height="77.77777" id="b650f300ca9f4c8fb9dcb2dfd4acd377-oa-16" stroke="#2D2D2D" width="633.33331" x="1021.77775" y="1136.2222"/>
  <rect fill="#00ff00" height="77.77777" id="b650f300ca9f4c8fb9dcb2dfd4acd377-oa-17" stroke="#2D2D2D" width="633.33331" x="1021.7778" y="931.77776"/>
  <rect fill="#00ff00" height="77.77777" id="b650f300ca9f4c8fb9dcb2dfd4acd377-oa-18" stroke="#2D2D2D" width="633.33331" x="1021.77778" y="778.44443"/>
  <rect fill="#00ff00" height="77.77777" id="b650f300ca9f4c8fb9dcb2dfd4acd377-oa-19" stroke="#2D2D2D" width="633.33331" x="1021.77778" y="682.88894"/>
  <rect fill="#00ff00" height="77.77777" id="b650f300ca9f4c8fb9dcb2dfd4acd377-oa-20" stroke="#2D2D2D" width="633.33331" x="1021.77778" y="585.11117"/>
  <rect fill="#00ff00" height="77.77777" id="b650f300ca9f4c8fb9dcb2dfd4acd377-oa-21" stroke="#2D2D2D" width="633.33331" x="1021.77778" y="487.33333"/>
  <rect fill="#00ff00" height="77.77777" id="b650f300ca9f4c8fb9dcb2dfd4acd377-oa-22" stroke="#2D2D2D" width="633.33331" x="1021.77775" y="394"/>
  <rect fill="#00ff00" height="77.77777" id="b650f300ca9f4c8fb9dcb2dfd4acd377-oa-23" stroke="#2D2D2D" width="633.33331" x="1021.77778" y="296.22223"/>
  <rect fill="#00ff00" height="77.77777" id="b650f300ca9f4c8fb9dcb2dfd4acd377-oa-24" stroke="#2D2D2D" width="633.33331" x="1021.77775" y="200.6667"/>
  <rect fill="#00ff00" height="77.77777" id="b650f300ca9f4c8fb9dcb2dfd4acd377-oa-25" stroke="#2D2D2D" width="633.33331" x="1021.77778" y="100.1111"/>
 </g>
</svg>